<svg width="29" height="25" viewBox="0 0 29 25" fill="none" xmlns="http://www.w3.org/2000/svg">
<g clip-path="url(#clip0_97_847)">
<path d="M0 0.5H29V24.5H0V0.5Z" fill="#FF9933"/>
<path d="M0 8.5H29V24.5H0V8.5Z" fill="white"/>
<path d="M0 16.5H29V24.5H0V16.5Z" fill="#128807"/>
<path d="M14.4997 15.7C15.9233 15.7 17.0774 14.2673 17.0774 12.5C17.0774 10.7327 15.9233 9.29999 14.4997 9.29999C13.076 9.29999 11.9219 10.7327 11.9219 12.5C11.9219 14.2673 13.076 15.7 14.4997 15.7Z" fill="#000088"/>
<path d="M14.4997 15.3C15.7454 15.3 16.7553 14.0464 16.7553 12.5C16.7553 10.9536 15.7454 9.70001 14.4997 9.70001C13.254 9.70001 12.2441 10.9536 12.2441 12.5C12.2441 14.0464 13.254 15.3 14.4997 15.3Z" fill="white"/>
<path d="M14.4999 13.06C14.7491 13.06 14.951 12.8093 14.951 12.5C14.951 12.1907 14.7491 11.94 14.4999 11.94C14.2508 11.94 14.0488 12.1907 14.0488 12.5C14.0488 12.8093 14.2508 13.06 14.4999 13.06Z" fill="#000088"/>
<path d="M16.721 13.0042C16.7828 13.0143 16.8394 12.9604 16.8476 12.8837C16.8557 12.8071 16.8122 12.7367 16.7505 12.7266C16.6887 12.7166 16.6321 12.7705 16.624 12.8472C16.6158 12.9238 16.6593 12.9941 16.721 13.0042Z" fill="#000088"/>
<path d="M14.4992 15.2999L14.5765 13.6199L14.4992 12.8199L14.4219 13.6199L14.4992 15.2999Z" fill="#000088"/>
</g>
<defs>
<clipPath id="clip0_97_847">
<path d="M0 4.5C0 2.29086 1.79086 0.5 4 0.5H25C27.2091 0.5 29 2.29086 29 4.5V20.5C29 22.7091 27.2091 24.5 25 24.5H4C1.79086 24.5 0 22.7091 0 20.5V4.5Z" fill="white"/>
</clipPath>
</defs>
</svg>
