<svg width="375" height="238" viewBox="0 0 375 238" fill="none" xmlns="http://www.w3.org/2000/svg">
<path d="M361.882 237.212C369.127 237.212 375 231.359 375 224.138V181.058C375 177.349 373.055 173.926 369.897 171.997C365.808 169.503 363.077 164.998 363.077 159.846C363.077 154.693 365.808 150.189 369.897 147.693C373.062 145.765 375 142.342 375 138.632V13.2857C375 6.0658 369.127 0.212863 361.882 0.212838L13.1173 0.21167C5.87288 0.211646 9.15876e-06 6.06459 9.15876e-06 13.2846L0 138.331C0 142.482 2.45945 146.163 6.18166 147.973C10.9317 150.277 14.2062 155.157 14.2062 160.802C14.2062 166.448 10.9317 171.32 6.18166 173.632C2.45211 175.442 0 179.122 0 183.274V224.138C0 231.359 5.87278 237.212 13.1173 237.212H361.882Z" fill="url(#paint0_linear_97_732)"/>
<defs>
<linearGradient id="paint0_linear_97_732" x1="375" y1="112.602" x2="0" y2="112.602" gradientUnits="userSpaceOnUse">
<stop offset="0.09375" stop-color="#3B4046"/>
<stop offset="1" stop-color="#2D3037"/>
</linearGradient>
</defs>
</svg>
