<svg width="21" height="14" viewBox="0 0 21 14" fill="none" xmlns="http://www.w3.org/2000/svg">
<path d="M5.95826 1.23222C6.34878 0.8417 6.98195 0.8417 7.37247 1.23222C7.76299 1.62275 7.76299 2.25592 7.37247 2.64644L3.74536 6.27267H19.9987C20.505 6.27267 20.9233 6.64886 20.9896 7.13697L20.9987 7.27267C20.9987 7.82494 20.551 8.27267 19.9987 8.27267H3.74536L7.37247 11.8989C7.72749 12.2539 7.75977 12.8094 7.4693 13.2009L7.37247 13.3131C6.98195 13.7036 6.34878 13.7036 5.95826 13.3131L0.624924 7.97977L0.540394 7.88374C0.538108 7.88077 0.535838 7.87781 0.533584 7.87483C0.522932 7.86084 0.512945 7.84688 0.50336 7.83274C0.488646 7.81087 0.474449 7.788 0.461171 7.76455C0.450301 7.74549 0.440109 7.72599 0.430605 7.70622C0.419291 7.68268 0.40863 7.65812 0.398949 7.63307C0.393402 7.6186 0.388436 7.60478 0.383782 7.59089C0.374137 7.56238 0.365592 7.53243 0.358442 7.50196C0.354717 7.48563 0.351466 7.47004 0.348589 7.45439C0.337758 7.39625 0.332031 7.33512 0.332031 7.27267L0.337339 7.37586C0.334597 7.34929 0.332917 7.32262 0.3323 7.29593L0.332031 7.27267C0.332031 7.265 0.332118 7.25734 0.332289 7.24971C0.332862 7.22359 0.334551 7.19649 0.337339 7.16946C0.340145 7.1419 0.343931 7.11567 0.348714 7.08979C0.351465 7.07528 0.354718 7.0597 0.358344 7.04418C0.365593 7.0129 0.374137 6.98295 0.384005 6.95362C0.388435 6.94055 0.393402 6.92672 0.398684 6.91299C0.40863 6.8872 0.419292 6.86265 0.430885 6.83862C0.440109 6.81934 0.450301 6.79983 0.461179 6.7806C0.474449 6.75731 0.488646 6.73446 0.503715 6.71222C0.538481 6.66076 0.579003 6.61147 0.624924 6.56556L0.533584 6.67051C0.561592 6.63343 0.592125 6.59836 0.624924 6.56556L5.95826 1.23222Z" fill="white"/>
</svg>
